<svg xmlns="http://www.w3.org/2000/svg" xmlns:xlink="http://www.w3.org/1999/xlink" width="150" zoomAndPan="magnify" viewBox="0 0 112.5 112.499997" height="150" preserveAspectRatio="xMidYMid meet" version="1.0"><defs><clipPath id="7d707e13b6"><path d="M 3 11 L 111 11 L 111 105.820312 L 3 105.820312 Z M 3 11 " clip-rule="nonzero"/></clipPath><clipPath id="e0c5fb02ee"><path d="M 31 91 L 67 91 L 67 105.820312 L 31 105.820312 Z M 31 91 " clip-rule="nonzero"/></clipPath><clipPath id="fcd97388b2"><path d="M 48 101 L 50 101 L 50 105.820312 L 48 105.820312 Z M 48 101 " clip-rule="nonzero"/></clipPath><clipPath id="431d1ef008"><path d="M 6 97 L 26 97 L 26 105.820312 L 6 105.820312 Z M 6 97 " clip-rule="nonzero"/></clipPath><clipPath id="c2e80fa7c2"><path d="M 6 96 L 26 96 L 26 105.820312 L 6 105.820312 Z M 6 96 " clip-rule="nonzero"/></clipPath><clipPath id="c87cc99c19"><path d="M 34 88 L 53 88 L 53 105.820312 L 34 105.820312 Z M 34 88 " clip-rule="nonzero"/></clipPath><clipPath id="594ab789e4"><path d="M 33 88 L 54 88 L 54 105.820312 L 33 105.820312 Z M 33 88 " clip-rule="nonzero"/></clipPath><clipPath id="620d50d20f"><path d="M 61 78 L 81 78 L 81 105.820312 L 61 105.820312 Z M 61 78 " clip-rule="nonzero"/></clipPath><clipPath id="1dd1e07e2b"><path d="M 61 77 L 81 77 L 81 105.820312 L 61 105.820312 Z M 61 77 " clip-rule="nonzero"/></clipPath><clipPath id="266c077b8c"><path d="M 89 58 L 109 58 L 109 105.820312 L 89 105.820312 Z M 89 58 " clip-rule="nonzero"/></clipPath></defs><g clip-path="url(#7d707e13b6)"><path fill="#041330" d="M 30.398438 105.769531 L 85.378906 105.769531 C 91.976562 105.769531 97.972656 101.898438 100.707031 95.867188 L 109.394531 76.726562 C 112.460938 69.964844 110.777344 61.984375 105.238281 57.054688 L 96.347656 49.140625 C 92.742188 45.929688 90.675781 41.324219 90.675781 36.484375 L 90.675781 26.726562 C 90.675781 13.914062 75.878906 6.828125 65.964844 14.894531 C 62.742188 17.519531 58.585938 18.703125 54.46875 18.164062 L 39.90625 16.269531 C 28.519531 14.785156 19.027344 24.917969 21.195312 36.238281 L 22.777344 44.492188 C 24.238281 52.121094 20.289062 59.757812 13.230469 62.945312 C 2.722656 67.691406 0.0507812 81.441406 8.007812 89.808594 L 18.21875 100.539062 C 21.394531 103.878906 25.796875 105.769531 30.398438 105.769531 Z M 30.398438 105.769531 " fill-opacity="1" fill-rule="nonzero"/></g><g clip-path="url(#e0c5fb02ee)"><path fill="#032068" d="M 66.648438 105.289062 L 65.117188 92.8125 L 32.640625 91.445312 L 31.789062 105.289062 Z M 66.648438 105.289062 " fill-opacity="1" fill-rule="nonzero"/></g><path fill="#efcb96" d="M 44.234375 42.796875 L 43.554688 46.386719 L 44.234375 50.144531 C 45.992188 50.375 49.574219 50.828125 49.84375 50.828125 C 50.117188 50.828125 52.113281 49.121094 53.074219 48.265625 L 52.054688 42.796875 C 54.914062 41.839844 55.851562 37.613281 55.96875 35.621094 C 56.648438 27.417969 51.207031 26.394531 50.183594 26.394531 C 49.164062 26.394531 42.703125 26.394531 41.851562 33.230469 C 41.171875 38.695312 43.15625 41.886719 44.234375 42.796875 Z M 44.234375 42.796875 " fill-opacity="1" fill-rule="nonzero"/><path fill="#efcb96" d="M 84.628906 52.375 C 83.917969 53.429688 81.09375 56.332031 80.769531 56.851562 L 82.042969 59.832031 L 85.527344 60.644531 C 86.3125 59.527344 88.554688 58.367188 89.085938 56.625 C 89.511719 55.226562 87.882812 53.335938 87.082031 53.027344 L 89.523438 49.667969 C 89.847656 49.21875 89.753906 48.59375 89.316406 48.257812 C 88.886719 47.929688 88.273438 48 87.929688 48.414062 Z M 84.628906 52.375 " fill-opacity="1" fill-rule="nonzero"/><path fill="#032068" d="M 46.101562 39.378906 C 45.421875 43.34375 44.460938 43.765625 44.0625 43.480469 C 39.300781 40.40625 39.417969 30.578125 42.363281 27.246094 C 45.082031 24.171875 47.125 25.367188 52.734375 24 C 58.347656 22.632812 60.21875 25.027344 59.199219 28.101562 C 57.730469 32.53125 53.074219 30.152344 51.886719 30.664062 C 50.695312 31.179688 49.164062 32.546875 48.484375 35.277344 C 47.804688 38.011719 47.464844 37.5 46.953125 35.960938 C 46.445312 34.425781 45.082031 32.203125 44.0625 34.9375 C 43.246094 37.125 45.082031 38.8125 46.101562 39.378906 Z M 46.101562 39.378906 " fill-opacity="1" fill-rule="nonzero"/><path fill="#99b9ff" d="M 31.449219 96.402344 C 33.488281 97.222656 45.675781 97.199219 51.515625 97.085938 C 56.164062 97.085938 65.765625 96.777344 66.988281 95.546875 C 68.214844 94.316406 67.839844 84.894531 67.5 81.195312 C 69.03125 83.074219 72.089844 84.097656 74.8125 82.21875 C 77.53125 80.339844 86.886719 62.910156 86.886719 60.859375 C 86.886719 58.808594 82.972656 55.390625 81.273438 55.390625 C 79.574219 55.390625 71.921875 64.789062 70.730469 63.933594 C 69.539062 63.082031 69.371094 58.125 65.117188 51.972656 C 61.71875 47.050781 55.3125 45.707031 52.875 45.652344 C 52.648438 46.902344 52.023438 49.410156 48.625 49.410156 C 45.222656 49.410156 43.804688 46.902344 43.351562 45.652344 C 41.140625 45.992188 37.058594 47.53125 35.53125 48.726562 C 34 49.921875 32.808594 55.5625 32.128906 59.492188 C 31.449219 63.421875 28.898438 95.375 31.449219 96.402344 Z M 31.449219 96.402344 " fill-opacity="1" fill-rule="nonzero"/><path fill="#ffffff" d="M 42.417969 79.675781 C 42.894531 79.355469 43.542969 79.480469 43.863281 79.960938 L 51.441406 91.289062 C 51.765625 91.769531 51.636719 92.421875 51.160156 92.746094 L 35.773438 103.136719 C 35.296875 103.457031 34.648438 103.332031 34.328125 102.851562 L 26.75 91.523438 C 26.429688 91.042969 26.554688 90.390625 27.035156 90.066406 Z M 42.417969 79.675781 " fill-opacity="1" fill-rule="nonzero"/><path fill="#032068" d="M 42.222656 79.386719 C 42.859375 78.957031 43.726562 79.125 44.152344 79.765625 L 51.730469 91.09375 C 52.160156 91.734375 51.988281 92.601562 51.351562 93.035156 L 35.96875 103.425781 C 35.332031 103.855469 34.46875 103.683594 34.039062 103.042969 L 26.460938 91.71875 C 26.03125 91.078125 26.203125 90.207031 26.839844 89.777344 Z M 43.578125 80.15625 C 43.363281 79.835938 42.929688 79.75 42.609375 79.96875 L 27.226562 90.359375 C 26.910156 90.574219 26.824219 91.007812 27.039062 91.328125 L 34.617188 102.65625 C 34.828125 102.976562 35.261719 103.058594 35.582031 102.84375 L 50.964844 92.453125 C 51.285156 92.238281 51.367188 91.804688 51.152344 91.484375 Z M 43.578125 80.15625 " fill-opacity="1" fill-rule="evenodd"/><path fill="#efcb96" d="M 45.054688 92.300781 C 43.964844 91.753906 43.351562 91.160156 43.183594 90.933594 C 42.332031 91.902344 40.53125 94.179688 40.121094 95.546875 C 39.609375 97.257812 42.332031 99.820312 43.183594 99.992188 C 44.03125 100.160156 46.582031 98.625 47.09375 97.769531 C 47.5 97.085938 46.582031 95.832031 46.074219 95.375 C 46.355469 94.976562 47.367188 94.523438 47.09375 93.839844 C 46.753906 92.984375 46.414062 92.984375 45.054688 92.300781 Z M 45.054688 92.300781 " fill-opacity="1" fill-rule="nonzero"/><path fill="#99b9ff" d="M 22.777344 70.085938 C 27.195312 57.441406 32.753906 50.605469 35.53125 48.726562 C 43.421875 52.28125 41.199219 61.257812 39.101562 65.300781 C 37.910156 67.296875 35.53125 71.863281 35.53125 74.1875 C 35.53125 77.09375 44.542969 88.542969 44.03125 90.933594 C 43.523438 93.324219 39.953125 96.230469 38.421875 95.890625 C 36.890625 95.546875 29.066406 88.542969 24.648438 82.5625 C 21.109375 77.777344 21.925781 72.25 22.777344 70.085938 Z M 22.777344 70.085938 " fill-opacity="1" fill-rule="nonzero"/><path fill="#032068" d="M 66.140625 64.277344 L 67.5 81.363281 C 68.042969 81.773438 69.085938 82.5625 69.539062 82.730469 C 69.402344 81.363281 67.214844 69.859375 66.140625 64.277344 Z M 66.140625 64.277344 " fill-opacity="1" fill-rule="nonzero"/><path fill="#032068" d="M 22.945312 69.746094 C 24.195312 71.679688 26.3125 77.023438 24.816406 82.902344 C 23.230469 81.195312 20.632812 76.167969 22.945312 69.746094 Z M 22.945312 69.746094 " fill-opacity="1" fill-rule="nonzero"/><path fill="#032068" d="M 67.5 81.195312 C 71.582031 79.28125 74.980469 80.054688 76.171875 80.679688 C 75.777344 81.476562 74.371094 83.105469 71.921875 83.246094 C 69.472656 83.378906 67.953125 81.933594 67.5 81.195312 Z M 67.5 81.195312 " fill-opacity="1" fill-rule="nonzero"/><path fill="#032068" d="M 37.742188 74.53125 C 37.605469 71.796875 38.703125 67.011719 39.269531 64.960938 C 38.929688 65.472656 37.980469 67.078125 36.890625 69.402344 C 35.53125 72.308594 35.191406 74.1875 36.039062 75.894531 C 36.410156 76.636719 37.824219 79.078125 39.367188 81.707031 L 40.121094 81.070312 C 38.921875 78.625 37.828125 76.300781 37.742188 74.53125 Z M 37.742188 74.53125 " fill-opacity="1" fill-rule="nonzero"/><g clip-path="url(#fcd97388b2)"><path fill="#ffffff" d="M 49.304688 101.1875 L 48.113281 105.457031 L 49.304688 105.457031 Z M 49.304688 101.1875 " fill-opacity="1" fill-rule="nonzero"/></g><path fill="#032068" d="M 48.453125 42.746094 C 50.085938 43.292969 51.457031 42.972656 52.023438 42.746094 L 52.535156 45.136719 C 50.359375 44.863281 48.90625 43.371094 48.453125 42.746094 Z M 48.453125 42.746094 " fill-opacity="1" fill-rule="nonzero"/><path fill="#99b9ff" d="M 67.464844 29.792969 L 68.222656 28.59375 C 68.359375 28.378906 68.683594 28.464844 68.695312 28.714844 L 68.769531 30.101562 C 68.773438 30.183594 68.816406 30.261719 68.886719 30.308594 L 70.152344 31.121094 C 70.355469 31.25 70.28125 31.570312 70.042969 31.597656 L 68.535156 31.78125 C 68.460938 31.792969 68.394531 31.832031 68.351562 31.894531 L 67.402344 33.28125 C 67.261719 33.488281 66.941406 33.394531 66.933594 33.144531 L 66.878906 31.566406 C 66.875 31.488281 66.839844 31.417969 66.78125 31.371094 L 65.4375 30.316406 C 65.242188 30.164062 65.359375 29.84375 65.609375 29.851562 L 67.238281 29.910156 C 67.328125 29.914062 67.414062 29.871094 67.464844 29.792969 Z M 67.464844 29.792969 " fill-opacity="1" fill-rule="nonzero"/><path fill="#99b9ff" d="M 76.652344 44.621094 L 77.039062 44.375 C 77.25 44.242188 77.507812 44.460938 77.410156 44.695312 L 77.242188 45.109375 C 77.210938 45.183594 77.21875 45.273438 77.261719 45.34375 L 77.554688 45.816406 C 77.679688 46.023438 77.480469 46.277344 77.253906 46.199219 L 76.714844 46.019531 C 76.644531 45.996094 76.570312 46.003906 76.503906 46.039062 L 75.953125 46.359375 C 75.738281 46.484375 75.492188 46.261719 75.589844 46.03125 L 75.816406 45.503906 C 75.847656 45.433594 75.847656 45.351562 75.8125 45.28125 L 75.523438 44.703125 C 75.414062 44.480469 75.652344 44.238281 75.875 44.355469 L 76.394531 44.632812 C 76.476562 44.675781 76.574219 44.671875 76.652344 44.621094 Z M 76.652344 44.621094 " fill-opacity="1" fill-rule="nonzero"/><path fill="#99b9ff" d="M 8.03125 59.605469 C 10.113281 58.070312 10.75 56.054688 10.804688 55.238281 L 16.359375 55.238281 C 16.53125 56.695312 16.425781 59.851562 14.621094 60.828125 C 12.820312 61.808594 12.367188 64.847656 12.367188 66.246094 C 11.257812 65.546875 7.855469 65.71875 6.296875 65.894531 C 6.007812 64.441406 5.949219 61.144531 8.03125 59.605469 Z M 8.03125 59.605469 " fill-opacity="1" fill-rule="nonzero"/><path fill="#99b9ff" d="M 3.691406 43.011719 C 9.660156 42.3125 13.464844 44.234375 14.621094 45.28125 L 18.09375 39.167969 C 12.539062 35.394531 6.179688 36.894531 3.691406 38.117188 Z M 3.691406 43.011719 " fill-opacity="1" fill-rule="nonzero"/><path fill="#99b9ff" d="M 23.992188 38.117188 L 21.910156 34.449219 C 22.605469 34.21875 24.269531 32.914062 25.378906 29.558594 C 26.492188 26.203125 29.890625 26.179688 31.453125 26.589844 L 31.972656 30.082031 C 30.699219 30.488281 29.195312 30.429688 28.503906 34.449219 C 27.980469 37.480469 25.378906 38.410156 23.992188 38.117188 Z M 23.992188 38.117188 " fill-opacity="1" fill-rule="nonzero"/><path fill="#032068" d="M 9.550781 59.746094 C 9.136719 60.859375 9.839844 61.597656 10.242188 61.832031 C 11.105469 62.003906 11.625 61.832031 12.492188 60.617188 C 13.355469 59.398438 12.492188 58.707031 11.972656 58.53125 C 11.453125 58.359375 10.070312 58.359375 9.550781 59.746094 Z M 9.550781 59.746094 " fill-opacity="1" fill-rule="nonzero"/><path fill="#032068" d="M 12.316406 40.304688 C 12.59375 38.777344 11.28125 38.277344 10.589844 38.21875 C 10.070312 38.164062 8.929688 38.324219 8.515625 39.4375 C 7.996094 40.824219 8.859375 41.691406 9.378906 41.867188 C 9.898438 42.039062 11.972656 42.214844 12.316406 40.304688 Z M 12.316406 40.304688 " fill-opacity="1" fill-rule="nonzero"/><path fill="#032068" d="M 27.359375 30.582031 C 26.804688 30.164062 26.089844 30.871094 25.804688 31.277344 C 25.515625 31.855469 25.113281 33.082031 25.804688 33.359375 C 26.667969 33.707031 27.359375 33.1875 27.707031 32.316406 C 28.050781 31.449219 28.050781 31.101562 27.359375 30.582031 Z M 27.359375 30.582031 " fill-opacity="1" fill-rule="nonzero"/><path fill="#ffffff" d="M 81.386719 20.035156 C 81.386719 19.601562 81.734375 19.25 82.164062 19.25 L 106.714844 19.25 C 107.144531 19.25 107.492188 19.601562 107.492188 20.035156 L 107.492188 34.335938 C 107.492188 34.769531 107.144531 35.121094 106.714844 35.121094 L 82.164062 35.121094 C 81.734375 35.121094 81.386719 34.769531 81.386719 34.335938 Z M 81.386719 20.035156 " fill-opacity="1" fill-rule="nonzero"/><path fill="#032068" d="M 81.128906 20.035156 C 81.128906 19.457031 81.589844 18.988281 82.164062 18.988281 L 106.714844 18.988281 C 107.289062 18.988281 107.75 19.457031 107.75 20.035156 L 107.75 34.335938 C 107.75 34.914062 107.289062 35.386719 106.714844 35.386719 L 82.164062 35.386719 C 81.589844 35.386719 81.128906 34.914062 81.128906 34.335938 Z M 82.164062 19.511719 C 81.878906 19.511719 81.644531 19.746094 81.644531 20.035156 L 81.644531 34.335938 C 81.644531 34.625 81.878906 34.859375 82.164062 34.859375 L 106.714844 34.859375 C 107.003906 34.859375 107.234375 34.625 107.234375 34.335938 L 107.234375 20.035156 C 107.234375 19.746094 107.003906 19.511719 106.714844 19.511719 Z M 82.164062 19.511719 " fill-opacity="1" fill-rule="evenodd"/><path fill="#99b9ff" d="M 86.609375 30.183594 C 85.632812 31.738281 84.695312 32.359375 84.34375 32.476562 L 104.359375 32.476562 L 104.359375 26.480469 C 103.953125 25.363281 102.792969 23.128906 100.53125 23.128906 C 97.222656 23.128906 97.050781 30.183594 94.441406 30.183594 C 92.351562 30.183594 92.351562 27.714844 89.742188 27.714844 C 88.695312 27.714844 87.828125 28.246094 86.609375 30.183594 Z M 86.609375 30.183594 " fill-opacity="1" fill-rule="nonzero"/><path fill="#032068" d="M 104.101562 32.214844 L 104.101562 21.71875 L 104.617188 21.71875 L 104.617188 32.738281 L 84.171875 32.738281 L 84.171875 32.214844 Z M 104.101562 32.214844 " fill-opacity="1" fill-rule="evenodd"/><path fill="#041330" d="M 84.519531 22.6875 C 84.519531 22.542969 84.636719 22.425781 84.777344 22.425781 L 91.222656 22.425781 C 91.367188 22.425781 91.480469 22.542969 91.480469 22.6875 L 91.480469 23.574219 C 91.480469 23.71875 91.367188 23.835938 91.222656 23.835938 L 84.777344 23.835938 C 84.636719 23.835938 84.519531 23.71875 84.519531 23.574219 Z M 84.519531 22.6875 " fill-opacity="1" fill-rule="nonzero"/><path fill="#032068" d="M 98.742188 43.457031 L 71.277344 65.890625 L 43.648438 75.878906 L 16.074219 88.992188 L 15.761719 88.332031 L 43.367188 75.203125 L 70.914062 65.246094 L 98.277344 42.890625 Z M 98.742188 43.457031 " fill-opacity="1" fill-rule="evenodd"/><g clip-path="url(#431d1ef008)"><path fill="#ffffff" d="M 6.488281 98.160156 C 6.488281 97.550781 6.980469 97.058594 7.585938 97.058594 L 24.25 97.058594 C 24.855469 97.058594 25.347656 97.550781 25.347656 98.160156 L 25.347656 104.359375 C 25.347656 104.964844 24.855469 105.457031 24.25 105.457031 L 7.585938 105.457031 C 6.980469 105.457031 6.488281 104.964844 6.488281 104.359375 Z M 6.488281 98.160156 " fill-opacity="1" fill-rule="nonzero"/></g><g clip-path="url(#c2e80fa7c2)"><path fill="#032068" d="M 6.125 98.160156 C 6.125 97.351562 6.777344 96.695312 7.585938 96.695312 L 24.25 96.695312 C 25.058594 96.695312 25.714844 97.351562 25.714844 98.160156 L 25.714844 104.359375 C 25.714844 105.167969 25.058594 105.824219 24.25 105.824219 L 7.585938 105.824219 C 6.777344 105.824219 6.125 105.167969 6.125 104.359375 Z M 7.585938 97.425781 C 7.183594 97.425781 6.855469 97.753906 6.855469 98.160156 L 6.855469 104.359375 C 6.855469 104.761719 7.183594 105.089844 7.585938 105.089844 L 24.25 105.089844 C 24.652344 105.089844 24.980469 104.761719 24.980469 104.359375 L 24.980469 98.160156 C 24.980469 97.753906 24.652344 97.425781 24.25 97.425781 Z M 7.585938 97.425781 " fill-opacity="1" fill-rule="evenodd"/></g><g clip-path="url(#c87cc99c19)"><path fill="#ffffff" d="M 34.078125 89.761719 C 34.078125 89.15625 34.570312 88.664062 35.175781 88.664062 L 51.839844 88.664062 C 52.445312 88.664062 52.9375 89.15625 52.9375 89.761719 L 52.9375 104.359375 C 52.9375 104.964844 52.445312 105.457031 51.839844 105.457031 L 35.175781 105.457031 C 34.570312 105.457031 34.078125 104.964844 34.078125 104.359375 Z M 34.078125 89.761719 " fill-opacity="1" fill-rule="nonzero"/></g><g clip-path="url(#594ab789e4)"><path fill="#032068" d="M 33.710938 89.761719 C 33.710938 88.953125 34.367188 88.296875 35.175781 88.296875 L 51.839844 88.296875 C 52.648438 88.296875 53.300781 88.953125 53.300781 89.761719 L 53.300781 104.359375 C 53.300781 105.167969 52.648438 105.824219 51.839844 105.824219 L 35.175781 105.824219 C 34.367188 105.824219 33.710938 105.167969 33.710938 104.359375 Z M 35.175781 89.027344 C 34.773438 89.027344 34.445312 89.355469 34.445312 89.761719 L 34.445312 104.359375 C 34.445312 104.765625 34.773438 105.089844 35.175781 105.089844 L 51.839844 105.089844 C 52.242188 105.089844 52.570312 104.765625 52.570312 104.359375 L 52.570312 89.761719 C 52.570312 89.355469 52.242188 89.027344 51.839844 89.027344 Z M 35.175781 89.027344 " fill-opacity="1" fill-rule="evenodd"/></g><g clip-path="url(#620d50d20f)"><path fill="#ffffff" d="M 61.667969 79.265625 C 61.667969 78.65625 62.15625 78.164062 62.765625 78.164062 L 79.425781 78.164062 C 80.035156 78.164062 80.523438 78.65625 80.523438 79.265625 L 80.523438 104.359375 C 80.523438 104.964844 80.035156 105.457031 79.425781 105.457031 L 62.765625 105.457031 C 62.15625 105.457031 61.667969 104.964844 61.667969 104.359375 Z M 61.667969 79.265625 " fill-opacity="1" fill-rule="nonzero"/></g><g clip-path="url(#1dd1e07e2b)"><path fill="#032068" d="M 61.300781 79.265625 C 61.300781 78.453125 61.957031 77.796875 62.765625 77.796875 L 79.425781 77.796875 C 80.234375 77.796875 80.890625 78.453125 80.890625 79.265625 L 80.890625 104.359375 C 80.890625 105.167969 80.234375 105.824219 79.425781 105.824219 L 62.765625 105.824219 C 61.957031 105.824219 61.300781 105.167969 61.300781 104.359375 Z M 62.765625 78.53125 C 62.359375 78.53125 62.03125 78.859375 62.03125 79.265625 L 62.03125 104.359375 C 62.03125 104.765625 62.359375 105.089844 62.765625 105.089844 L 79.425781 105.089844 C 79.832031 105.089844 80.160156 104.765625 80.160156 104.359375 L 80.160156 79.265625 C 80.160156 78.859375 79.832031 78.53125 79.425781 78.53125 Z M 62.765625 78.53125 " fill-opacity="1" fill-rule="evenodd"/></g><g clip-path="url(#266c077b8c)"><path fill="#99b9ff" d="M 89.253906 59.320312 C 89.253906 58.710938 89.746094 58.21875 90.351562 58.21875 L 107.015625 58.21875 C 107.621094 58.21875 108.113281 58.710938 108.113281 59.320312 L 108.113281 104.359375 C 108.113281 104.964844 107.621094 105.457031 107.015625 105.457031 L 90.351562 105.457031 C 89.746094 105.457031 89.253906 104.964844 89.253906 104.359375 Z M 89.253906 59.320312 " fill-opacity="1" fill-rule="nonzero"/></g><path fill="#032068" d="M 18.363281 88.664062 C 18.363281 90.015625 17.269531 91.113281 15.917969 91.113281 C 14.566406 91.113281 13.472656 90.015625 13.472656 88.664062 C 13.472656 87.308594 14.566406 86.214844 15.917969 86.214844 C 17.269531 86.214844 18.363281 87.308594 18.363281 88.664062 Z M 18.363281 88.664062 " fill-opacity="1" fill-rule="nonzero"/><path fill="#032068" d="M 45.953125 75.714844 C 45.953125 77.070312 44.855469 78.164062 43.507812 78.164062 C 42.15625 78.164062 41.0625 77.070312 41.0625 75.714844 C 41.0625 74.363281 42.15625 73.265625 43.507812 73.265625 C 44.855469 73.265625 45.953125 74.363281 45.953125 75.714844 Z M 45.953125 75.714844 " fill-opacity="1" fill-rule="nonzero"/><path fill="#032068" d="M 73.539062 65.570312 C 73.539062 66.921875 72.445312 68.019531 71.09375 68.019531 C 69.746094 68.019531 68.652344 66.921875 68.652344 65.570312 C 68.652344 64.214844 69.746094 63.117188 71.09375 63.117188 C 72.445312 63.117188 73.539062 64.214844 73.539062 65.570312 Z M 73.539062 65.570312 " fill-opacity="1" fill-rule="nonzero"/><path fill="#99b9ff" d="M 101.128906 43.175781 C 101.128906 44.527344 100.035156 45.625 98.683594 45.625 C 97.335938 45.625 96.238281 44.527344 96.238281 43.175781 C 96.238281 41.820312 97.335938 40.726562 98.683594 40.726562 C 100.035156 40.726562 101.128906 41.820312 101.128906 43.175781 Z M 101.128906 43.175781 " fill-opacity="1" fill-rule="nonzero"/></svg>